<?xml version="1.0" standalone="no"?>
<!DOCTYPE svg PUBLIC "-//W3C//DTD SVG 1.1//EN" "http://www.w3.org/Graphics/SVG/1.1/DTD/svg11.dtd" >
<svg xmlns="http://www.w3.org/2000/svg">
<metadata>
This is a custom SVG webfont generated by Font Squirrel.
</metadata>
<defs>
<font id="webfontTcAly8TX" horiz-adv-x="1462" >
<font-face units-per-em="2048" ascent="1638" descent="-410" />
<missing-glyph horiz-adv-x="974" />
<glyph unicode=" "  horiz-adv-x="974" />
<glyph unicode="&#x09;" horiz-adv-x="974" />
<glyph unicode="&#xa0;" horiz-adv-x="974" />
<glyph unicode="!" horiz-adv-x="731" d="M244 0v244h243v-244h-243zM244 487v732h243v-732h-243z" />
<glyph unicode="&#x22;" horiz-adv-x="1218" d="M244 731v488h243v-488h-243zM731 731v488h244v-488h-244z" />
<glyph unicode="#" horiz-adv-x="1705" d="M244 244v243h243v-243h-243zM244 731v244h243v-244h-243zM487 0v1219h244v-1219h-244zM731 244v243h244v-243h-244zM731 731v244h244v-244h-244zM975 0v1219h244v-1219h-244zM1219 244v243h243v-243h-243zM1219 731v244h243v-244h-243z" />
<glyph unicode="$" d="M244 0v244h731v243h244v-487h-975zM244 731v244h243v-244h-243zM487 0h244v-244h-244v244zM487 487v244h488v-244h-488zM487 975v244h732v-244h-732zM731 1219v243h244v-243h-244z" />
<glyph unicode="%" horiz-adv-x="1705" d="M244 731v488h487v-488h-487zM487 0v487h244v-487h-244zM731 487v244h244v-244h-244zM975 0v487h487v-487h-487zM975 731v488h244v-488h-244z" />
<glyph unicode="&#x26;" d="M244 244v243h243v-243h-243zM244 731v244h243v-244h-243zM487 0v244h732v-244h-732zM487 487v244h488v-244h-488zM487 975v244h732v-244h-732zM731 0h244v-244h-244v244zM731 1219v243h244v-243h-244z" />
<glyph unicode="'" horiz-adv-x="731" d="M244 731v488h243v-488h-243z" />
<glyph unicode="(" horiz-adv-x="974" d="M244 244v731h243v-731h-243zM487 0v244h244v-244h-244zM487 0zM487 975v244h244v-244h-244z" />
<glyph unicode=")" horiz-adv-x="974" d="M244 0v244h243v-244h-243zM244 975v244h243v-244h-243zM487 0zM487 244v731h244v-731h-244z" />
<glyph unicode="*" horiz-adv-x="1705" d="M244 244v243h243v-243h-243zM244 731v244h243v-244h-243zM487 487v244h244v-244h-244zM731 0v1219h244v-1219h-244zM975 487v244h244v-244h-244zM1219 244v243h243v-243h-243zM1219 731v244h243v-244h-243z" />
<glyph unicode="+" horiz-adv-x="1705" d="M244 487h487v-487h244v487h487v244h-487v488h-244v-488h-487v-244z" />
<glyph unicode="," horiz-adv-x="731" d="M0 0h244v-244h-244v244zM244 0v244h243v-244h-243z" />
<glyph unicode="-" horiz-adv-x="1218" d="M244 487v244h731v-244h-731z" />
<glyph unicode="." horiz-adv-x="487" d="M0 0v244h244v-244h-244z" />
<glyph unicode="/" horiz-adv-x="1218" d="M244 0v487h243v-487h-243zM487 487v244h244v-244h-244zM731 731v488h244v-488h-244z" />
<glyph unicode="0" d="M244 244v731h243v-731h-243zM487 0v244h488v-244h-488zM487 0zM487 975v244h488v-244h-488zM975 244v731h244v-731h-244z" />
<glyph unicode="1" horiz-adv-x="1218" d="M244 0v244h243v731h-243v244h487v-975h244v-244h-731z" />
<glyph unicode="2" d="M244 0v487h243v-243h732v-244h-975zM244 975v244h731v-244h-731zM487 487v244h488v-244h-488zM975 731v244h244v-244h-244z" />
<glyph unicode="3" d="M244 0v244h731v-244h-731zM244 975v244h731v-244h-731zM487 487v244h488v-244h-488zM975 244v243h244v-243h-244zM975 731v244h244v-244h-244z" />
<glyph unicode="4" d="M244 244h487v-244h244v244h244v243h-244v732h-244v-732h-244v732h-243v-975z" />
<glyph unicode="5" d="M244 0v244h731v-244h-731zM244 487h731v244h-488v244h732v244h-975v-732zM975 244v243h244v-243h-244z" />
<glyph unicode="6" d="M244 244h243v243h488v244h-488v244h-243v-731zM487 0v244h488v-244h-488zM487 975v244h488v-244h-488zM975 244v243h244v-243h-244z" />
<glyph unicode="7" d="M244 975v244h975v-488h-244v244h-731zM487 0v487h244v-487h-244zM731 487v244h244v-244h-244z" />
<glyph unicode="8" d="M244 244v243h243v-243h-243zM244 731v244h243v-244h-243zM487 0v244h488v-244h-488zM487 487v244h488v-244h-488zM487 975v244h488v-244h-488zM975 244v243h244v-243h-244zM975 731v244h244v-244h-244z" />
<glyph unicode="9" d="M244 731v244h243v-244h-243zM487 0v244h488v-244h-488zM487 487h488v-243h244v731h-244v-244h-488v-244zM487 975v244h488v-244h-488z" />
<glyph unicode=":" horiz-adv-x="487" d="M0 244v243h244v-243h-244zM0 731v244h244v-244h-244z" />
<glyph unicode=";" horiz-adv-x="731" d="M0 0v244h244v-244h-244zM244 244v243h243v-243h-243zM244 731v244h243v-244h-243z" />
<glyph unicode="&#x3c;" horiz-adv-x="1218" d="M244 487v244h243v-244h-243zM487 244v243h244v-243h-244zM487 731v244h244v-244h-244zM731 0v244h244v-244h-244zM731 975v244h244v-244h-244z" />
<glyph unicode="=" horiz-adv-x="1218" d="M244 244v243h731v-243h-731zM244 731v244h731v-244h-731z" />
<glyph unicode="&#x3e;" horiz-adv-x="1218" d="M244 0v244h243v-244h-243zM244 975v244h243v-244h-243zM487 244v243h244v-243h-244zM487 731v244h244v-244h-244zM731 487v244h244v-244h-244z" />
<glyph unicode="?" d="M244 975v244h731v-244h-731zM487 0v244h244v-244h-244zM487 487v244h488v-244h-488zM975 731v244h244v-244h-244z" />
<glyph unicode="@" horiz-adv-x="1705" d="M244 244v731h243v-731h-243zM487 0v244h732v-244h-732zM487 0zM487 975h244v-488h488v244h-244v244h244v244h-732v-244zM1219 731v244h243v-244h-243z" />
<glyph unicode="A" d="M250 0v975h244v-244h487v244h244v-975h-244v487h-487v-487h-244zM494 975h487v244h-487v-244z" />
<glyph unicode="B" d="M244 0v1219h731v-244h-488v-244h488v-244h-488v-243h488v-244h-731zM975 244v243h244v-243h-244zM975 731v244h244v-244h-244z" />
<glyph unicode="C" d="M244 244v731h243v-731h-243zM487 0v244h488v-244h-488zM487 0zM487 975v244h488v-244h-488zM975 244v243h244v-243h-244zM975 487zM975 731v244h244v-244h-244z" />
<glyph unicode="D" d="M244 0v1219h731v-244h-488v-731h488v-244h-731zM975 244v731h244v-731h-244z" />
<glyph unicode="E" horiz-adv-x="1218" d="M244 0v1219h731v-244h-488v-244h488v-244h-488v-243h488v-244h-731z" />
<glyph unicode="F" horiz-adv-x="1218" d="M244 0v1219h731v-244h-488v-244h488v-244h-488v-487h-243z" />
<glyph unicode="G" d="M244 244v731h243v-731h-243zM487 0v244h488v-244h-488zM487 0zM487 975v244h732v-244h-732zM731 487v244h488v-487h-244v243h-244z" />
<glyph unicode="H" d="M244 0v1219h243v-488h488v488h244v-1219h-244v487h-488v-487h-243z" />
<glyph unicode="I" horiz-adv-x="731" d="M244 0v1219h243v-1219h-243z" />
<glyph unicode="J" d="M244 244v243h243v-243h-243zM487 0v244h488v-244h-488zM975 244v975h244v-975h-244z" />
<glyph unicode="K" d="M244 0v1219h243v-488h244v-244h-244v-487h-243zM731 244v243h244v-243h-244zM731 731v244h244v-244h-244zM975 0v244h244v-244h-244zM975 975v244h244v-244h-244z" />
<glyph unicode="L" horiz-adv-x="1218" d="M244 0v1219h243v-975h488v-244h-731z" />
<glyph unicode="M" horiz-adv-x="1705" d="M244 0v1219h243v-1219h-243zM487 731v244h244v-244h-244zM731 487v244h244v-244h-244zM975 731v244h244v-244h-244zM1219 0v1219h243v-1219h-243z" />
<glyph unicode="N" horiz-adv-x="1705" d="M244 0v1219h243v-1219h-243zM487 731v244h244v-244h-244zM731 487v244h244v-244h-244zM975 244v243h244v-243h-244zM1219 0v1219h243v-1219h-243z" />
<glyph unicode="O" d="M244 244v731h243v-731h-243zM487 0v244h488v-244h-488zM487 0zM487 975v244h488v-244h-488zM975 244v731h244v-731h-244z" />
<glyph unicode="P" d="M244 0v1219h731v-244h-488v-244h488v-244h-488v-487h-243zM975 731v244h244v-244h-244z" />
<glyph unicode="Q" d="M244 244v731h243v-731h-243zM487 0v244h488v-244h-488zM487 0zM487 975v244h488v-244h-488zM975 0h244v-244h-244v244zM975 244v731h244v-731h-244z" />
<glyph unicode="R" d="M244 0v1219h731v-244h-488v-244h488v-244h-488v-487h-243zM731 244v243h244v-243h-244zM975 0v244h244v-244h-244zM975 731v244h244v-244h-244z" />
<glyph unicode="S" d="M244 0v244h731v-244h-731zM244 731v244h243v-244h-243zM487 487h488v244h-488v-244zM487 975v244h732v-244h-732zM975 244v243h244v-243h-244z" />
<glyph unicode="T" horiz-adv-x="1218" d="M244 975v244h731v-244h-244v-975h-244v975h-243z" />
<glyph unicode="U" d="M244 244v975h243v-975h-243zM487 0v244h488v-244h-488zM975 244v975h244v-975h-244z" />
<glyph unicode="V" horiz-adv-x="1705" d="M244 731v488h243v-488h-243zM487 244v487h244v-487h-244zM731 0v244h244v-244h-244zM975 244v487h244v-487h-244zM1219 731v488h243v-488h-243z" />
<glyph unicode="W" horiz-adv-x="1705" d="M244 244v975h243v-975h-243zM487 0v244h244v-244h-244zM731 244v731h244v-731h-244zM975 0v244h244v-244h-244zM1219 244v975h243v-975h-243z" />
<glyph unicode="X" horiz-adv-x="1705" d="M244 0v244h243v-244h-243zM244 975v244h243v-244h-243zM487 244v243h244v-243h-244zM487 731v244h244v-244h-244zM731 487v244h244v-244h-244zM975 244v243h244v-243h-244zM975 731v244h244v-244h-244zM1219 0v244h243v-244h-243zM1219 975v244h243v-244h-243z" />
<glyph unicode="Y" horiz-adv-x="1705" d="M244 975v244h243v-244h-243zM487 731v244h244v-244h-244zM731 0v731h244v-731h-244zM975 731v244h244v-244h-244zM1219 975v244h243v-244h-243z" />
<glyph unicode="Z" horiz-adv-x="1218" d="M244 0v487h243v-243h488v-244h-731zM244 975v244h731v-488h-244v244h-487zM487 487v244h244v-244h-244z" />
<glyph unicode="[" horiz-adv-x="974" d="M244 0v1219h487v-244h-244v-731h244v-244h-487z" />
<glyph unicode="\" horiz-adv-x="1218" d="M244 731v488h243v-488h-243zM487 487v244h244v-244h-244zM731 0v487h244v-487h-244z" />
<glyph unicode="]" horiz-adv-x="974" d="M244 0v244h243v731h-243v244h487v-1219h-487z" />
<glyph unicode="^" horiz-adv-x="1218" d="M244 731v244h243v-244h-243zM487 975v244h244v-244h-244zM731 731v244h244v-244h-244z" />
<glyph unicode="_" d="M244 0h975v-244h-975v244z" />
<glyph unicode="`" horiz-adv-x="974" d="M244 975v244h243v-244h-243zM487 0zM487 731v244h244v-244h-244z" />
<glyph unicode="a" d="M250 0v975h244v-244h487v244h244v-975h-244v487h-487v-487h-244zM494 975h487v244h-487v-244z" />
<glyph unicode="b" d="M244 0v1219h731v-244h-488v-244h488v-244h-488v-243h488v-244h-731zM975 244v243h244v-243h-244zM975 731v244h244v-244h-244z" />
<glyph unicode="c" d="M244 244v731h243v-731h-243zM487 0v244h488v-244h-488zM487 0zM487 975v244h488v-244h-488zM975 244v243h244v-243h-244zM975 487zM975 731v244h244v-244h-244z" />
<glyph unicode="d" d="M244 0v1219h731v-244h-488v-731h488v-244h-731zM975 244v731h244v-731h-244z" />
<glyph unicode="e" horiz-adv-x="1218" d="M244 0v1219h731v-244h-488v-244h488v-244h-488v-243h488v-244h-731z" />
<glyph unicode="f" horiz-adv-x="1218" d="M244 0v1219h731v-244h-488v-244h488v-244h-488v-487h-243z" />
<glyph unicode="g" d="M244 244v731h243v-731h-243zM487 0v244h488v-244h-488zM487 0zM487 975v244h732v-244h-732zM731 487v244h488v-487h-244v243h-244z" />
<glyph unicode="h" d="M244 0v1219h243v-488h488v488h244v-1219h-244v487h-488v-487h-243z" />
<glyph unicode="i" horiz-adv-x="731" d="M244 0v1219h243v-1219h-243z" />
<glyph unicode="j" d="M244 244v243h243v-243h-243zM487 0v244h488v-244h-488zM975 244v975h244v-975h-244z" />
<glyph unicode="k" d="M244 0v1219h243v-488h244v-244h-244v-487h-243zM731 244v243h244v-243h-244zM731 731v244h244v-244h-244zM975 0v244h244v-244h-244zM975 975v244h244v-244h-244z" />
<glyph unicode="l" horiz-adv-x="1218" d="M244 0v1219h243v-975h488v-244h-731z" />
<glyph unicode="m" horiz-adv-x="1705" d="M244 0v1219h243v-1219h-243zM487 731v244h244v-244h-244zM731 487v244h244v-244h-244zM975 731v244h244v-244h-244zM1219 0v1219h243v-1219h-243z" />
<glyph unicode="n" horiz-adv-x="1705" d="M244 0v1219h243v-1219h-243zM487 731v244h244v-244h-244zM731 487v244h244v-244h-244zM975 244v243h244v-243h-244zM1219 0v1219h243v-1219h-243z" />
<glyph unicode="o" d="M244 244v731h243v-731h-243zM487 0v244h488v-244h-488zM487 0zM487 975v244h488v-244h-488zM975 244v731h244v-731h-244z" />
<glyph unicode="p" d="M244 0v1219h731v-244h-488v-244h488v-244h-488v-487h-243zM975 731v244h244v-244h-244z" />
<glyph unicode="q" d="M244 244v731h243v-731h-243zM487 0v244h488v-244h-488zM487 0zM487 975v244h488v-244h-488zM975 0h244v-244h-244v244zM975 244v731h244v-731h-244z" />
<glyph unicode="r" d="M244 0v1219h731v-244h-488v-244h488v-244h-488v-487h-243zM731 244v243h244v-243h-244zM975 0v244h244v-244h-244zM975 731v244h244v-244h-244z" />
<glyph unicode="s" d="M244 0v244h731v-244h-731zM244 731v244h243v-244h-243zM487 487h488v244h-488v-244zM487 975v244h732v-244h-732zM975 244v243h244v-243h-244z" />
<glyph unicode="t" horiz-adv-x="1218" d="M244 975v244h731v-244h-244v-975h-244v975h-243z" />
<glyph unicode="u" d="M244 244v975h243v-975h-243zM487 0v244h488v-244h-488zM975 244v975h244v-975h-244z" />
<glyph unicode="v" horiz-adv-x="1705" d="M244 731v488h243v-488h-243zM487 244v487h244v-487h-244zM731 0v244h244v-244h-244zM975 244v487h244v-487h-244zM1219 731v488h243v-488h-243z" />
<glyph unicode="w" horiz-adv-x="1705" d="M244 244v975h243v-975h-243zM487 0v244h244v-244h-244zM731 244v731h244v-731h-244zM975 0v244h244v-244h-244zM1219 244v975h243v-975h-243z" />
<glyph unicode="x" horiz-adv-x="1705" d="M244 0v244h243v-244h-243zM244 975v244h243v-244h-243zM487 244v243h244v-243h-244zM487 731v244h244v-244h-244zM731 487v244h244v-244h-244zM975 244v243h244v-243h-244zM975 731v244h244v-244h-244zM1219 0v244h243v-244h-243zM1219 975v244h243v-244h-243z" />
<glyph unicode="y" horiz-adv-x="1705" d="M244 975v244h243v-244h-243zM487 731v244h244v-244h-244zM731 0v731h244v-731h-244zM975 731v244h244v-244h-244zM1219 975v244h243v-244h-243z" />
<glyph unicode="z" horiz-adv-x="1218" d="M244 0v487h243v-243h488v-244h-731zM244 975v244h731v-488h-244v244h-487zM487 487v244h244v-244h-244z" />
<glyph unicode="{" horiz-adv-x="1218" d="M244 487v244h243v-244h-243zM487 0v487h244v-243h244v-244h-488zM487 731v488h488v-244h-244v-244h-244z" />
<glyph unicode="|" horiz-adv-x="731" d="M244 -244v1706h243v-1706h-243z" />
<glyph unicode="}" horiz-adv-x="1218" d="M244 0v244h243v243h244v-487h-487zM244 975v244h487v-488h-244v244h-243zM731 487v244h244v-244h-244z" />
<glyph unicode="~" d="M244 731v244h243v-244h-243zM487 975v244h244v-244h-244zM731 731v244h244v-244h-244zM975 975v244h244v-244h-244z" />
<glyph unicode="&#xaa;" d="M250 0v975h244v-244h487v244h244v-975h-244v487h-487v-487h-244zM494 975h487v244h-487v-244z" />
<glyph unicode="&#xad;" horiz-adv-x="1218" d="M244 487v244h731v-244h-731z" />
<glyph unicode="&#xb2;" d="M244 0v487h243v-243h732v-244h-975zM244 975v244h731v-244h-731zM487 487v244h488v-244h-488zM975 731v244h244v-244h-244z" />
<glyph unicode="&#xb3;" d="M244 0v244h731v-244h-731zM244 975v244h731v-244h-731zM487 487v244h488v-244h-488zM975 244v243h244v-243h-244zM975 731v244h244v-244h-244z" />
<glyph unicode="&#xb9;" horiz-adv-x="1218" d="M244 0v244h243v731h-243v244h487v-975h244v-244h-731z" />
<glyph unicode="&#xba;" d="M244 244v731h243v-731h-243zM487 0v244h488v-244h-488zM487 0zM487 975v244h488v-244h-488zM975 244v731h244v-731h-244z" />
<glyph unicode="&#xc0;" d="M373 1585v244h243v-244h-243zM616 610zM616 1341v244h244v-244h-244zM250 0v975h244v-244h487v244h244v-975h-244v487h-487v-487h-244zM494 975h487v244h-487v-244z" />
<glyph unicode="&#xc2;" d="M373 1341v244h243v-244h-243zM616 1585v244h244v-244h-244zM860 1341v244h244v-244h-244zM250 0v975h244v-244h487v244h244v-975h-244v487h-487v-487h-244zM494 975h487v244h-487v-244z" />
<glyph unicode="&#xc3;" d="M250 1341v244h243v-244h-243zM493 1585v244h244v-244h-244zM737 1341v244h244v-244h-244zM981 1585v244h244v-244h-244zM250 0v975h244v-244h487v244h244v-975h-244v487h-487v-487h-244zM494 975h487v244h-487v-244z" />
<glyph unicode="&#xc8;" horiz-adv-x="1218" d="M244 1585v244h243v-244h-243zM487 610zM487 1341v244h244v-244h-244zM244 0v1219h731v-244h-488v-244h488v-244h-488v-243h488v-244h-731z" />
<glyph unicode="&#xca;" horiz-adv-x="1218" d="M244 1341v244h243v-244h-243zM487 1585v244h244v-244h-244zM731 1341v244h244v-244h-244zM244 0v1219h731v-244h-488v-244h488v-244h-488v-243h488v-244h-731z" />
<glyph unicode="&#xcc;" horiz-adv-x="731" d="M0 1585v244h243v-244h-243zM243 610zM243 1341v244h244v-244h-244zM244 0v1219h243v-1219h-243z" />
<glyph unicode="&#xce;" horiz-adv-x="731" d="M0 1341v244h243v-244h-243zM243 1585v244h244v-244h-244zM487 1341v244h244v-244h-244zM244 0v1219h243v-1219h-243z" />
<glyph unicode="&#xd1;" horiz-adv-x="1705" d="M365 1341v244h243v-244h-243zM608 1585v244h244v-244h-244zM852 1341v244h244v-244h-244zM1096 1585v244h244v-244h-244zM244 0v1219h243v-1219h-243zM487 731v244h244v-244h-244zM731 487v244h244v-244h-244zM975 244v243h244v-243h-244zM1219 0v1219h243v-1219h-243z " />
<glyph unicode="&#xd2;" d="M365 1585v244h243v-244h-243zM608 610zM608 1341v244h244v-244h-244zM244 244v731h243v-731h-243zM487 0v244h488v-244h-488zM487 0zM487 975v244h488v-244h-488zM975 244v731h244v-731h-244z" />
<glyph unicode="&#xd4;" d="M365 1341v244h243v-244h-243zM608 1585v244h244v-244h-244zM852 1341v244h244v-244h-244zM244 244v731h243v-731h-243zM487 0v244h488v-244h-488zM487 0zM487 975v244h488v-244h-488zM975 244v731h244v-731h-244z" />
<glyph unicode="&#xd5;" d="M244 1341v244h243v-244h-243zM487 1585v244h244v-244h-244zM731 1341v244h244v-244h-244zM975 1585v244h244v-244h-244zM244 244v731h243v-731h-243zM487 0v244h488v-244h-488zM487 0zM487 975v244h488v-244h-488zM975 244v731h244v-731h-244z" />
<glyph unicode="&#xd9;" d="M365 1585v244h243v-244h-243zM608 610zM608 1341v244h244v-244h-244zM244 244v975h243v-975h-243zM487 0v244h488v-244h-488zM975 244v975h244v-975h-244z" />
<glyph unicode="&#xdb;" d="M365 1341v244h243v-244h-243zM608 1585v244h244v-244h-244zM852 1341v244h244v-244h-244zM244 244v975h243v-975h-243zM487 0v244h488v-244h-488zM975 244v975h244v-975h-244z" />
<glyph unicode="&#xe0;" d="M373 1585v244h243v-244h-243zM616 610zM616 1341v244h244v-244h-244zM250 0v975h244v-244h487v244h244v-975h-244v487h-487v-487h-244zM494 975h487v244h-487v-244z" />
<glyph unicode="&#xe2;" d="M373 1341v244h243v-244h-243zM616 1585v244h244v-244h-244zM860 1341v244h244v-244h-244zM250 0v975h244v-244h487v244h244v-975h-244v487h-487v-487h-244zM494 975h487v244h-487v-244z" />
<glyph unicode="&#xe3;" d="M250 1341v244h243v-244h-243zM493 1585v244h244v-244h-244zM737 1341v244h244v-244h-244zM981 1585v244h244v-244h-244zM250 0v975h244v-244h487v244h244v-975h-244v487h-487v-487h-244zM494 975h487v244h-487v-244z" />
<glyph unicode="&#xe8;" horiz-adv-x="1218" d="M244 1585v244h243v-244h-243zM487 610zM487 1341v244h244v-244h-244zM244 0v1219h731v-244h-488v-244h488v-244h-488v-243h488v-244h-731z" />
<glyph unicode="&#xea;" horiz-adv-x="1218" d="M244 1341v244h243v-244h-243zM487 1585v244h244v-244h-244zM731 1341v244h244v-244h-244zM244 0v1219h731v-244h-488v-244h488v-244h-488v-243h488v-244h-731z" />
<glyph unicode="&#xec;" horiz-adv-x="731" d="M0 1585v244h243v-244h-243zM243 610zM243 1341v244h244v-244h-244zM244 0v1219h243v-1219h-243z" />
<glyph unicode="&#xee;" horiz-adv-x="731" d="M0 1341v244h243v-244h-243zM243 1585v244h244v-244h-244zM487 1341v244h244v-244h-244zM244 0v1219h243v-1219h-243z" />
<glyph unicode="&#xf1;" horiz-adv-x="1705" d="M365 1341v244h243v-244h-243zM608 1585v244h244v-244h-244zM852 1341v244h244v-244h-244zM1096 1585v244h244v-244h-244zM244 0v1219h243v-1219h-243zM487 731v244h244v-244h-244zM731 487v244h244v-244h-244zM975 244v243h244v-243h-244zM1219 0v1219h243v-1219h-243z " />
<glyph unicode="&#xf2;" d="M365 1585v244h243v-244h-243zM608 610zM608 1341v244h244v-244h-244zM244 244v731h243v-731h-243zM487 0v244h488v-244h-488zM487 0zM487 975v244h488v-244h-488zM975 244v731h244v-731h-244z" />
<glyph unicode="&#xf4;" d="M365 1341v244h243v-244h-243zM608 1585v244h244v-244h-244zM852 1341v244h244v-244h-244zM244 244v731h243v-731h-243zM487 0v244h488v-244h-488zM487 0zM487 975v244h488v-244h-488zM975 244v731h244v-731h-244z" />
<glyph unicode="&#xf5;" d="M244 1341v244h243v-244h-243zM487 1585v244h244v-244h-244zM731 1341v244h244v-244h-244zM975 1585v244h244v-244h-244zM244 244v731h243v-731h-243zM487 0v244h488v-244h-488zM487 0zM487 975v244h488v-244h-488zM975 244v731h244v-731h-244z" />
<glyph unicode="&#xf9;" d="M365 1585v244h243v-244h-243zM608 610zM608 1341v244h244v-244h-244zM244 244v975h243v-975h-243zM487 0v244h488v-244h-488zM975 244v975h244v-975h-244z" />
<glyph unicode="&#xfb;" d="M365 1341v244h243v-244h-243zM608 1585v244h244v-244h-244zM852 1341v244h244v-244h-244zM244 244v975h243v-975h-243zM487 0v244h488v-244h-488zM975 244v975h244v-975h-244z" />
<glyph unicode="&#x152;" horiz-adv-x="2680" d="M1706 0v1219h731v-244h-488v-244h488v-244h-488v-243h488v-244h-731zM244 244v731h243v-731h-243zM487 0v244h488v-244h-488zM487 0zM487 975v244h488v-244h-488zM975 244v731h244v-731h-244z" />
<glyph unicode="&#x153;" horiz-adv-x="2680" d="M1706 0v1219h731v-244h-488v-244h488v-244h-488v-243h488v-244h-731zM244 244v731h243v-731h-243zM487 0v244h488v-244h-488zM487 0zM487 975v244h488v-244h-488zM975 244v731h244v-731h-244z" />
<glyph unicode="&#x2c6;" horiz-adv-x="1218" d="M244 731v244h243v-244h-243zM487 975v244h244v-244h-244zM731 731v244h244v-244h-244z" />
<glyph unicode="&#x2dc;" horiz-adv-x="974" d="M-487 123v244h243v-244h-243zM-244 367v244h244v-244h-244zM0 123v244h244v-244h-244zM244 367v244h244v-244h-244z" />
<glyph unicode="&#x2000;" horiz-adv-x="913" />
<glyph unicode="&#x2001;" horiz-adv-x="1828" />
<glyph unicode="&#x2002;" horiz-adv-x="913" />
<glyph unicode="&#x2003;" horiz-adv-x="1828" />
<glyph unicode="&#x2004;" horiz-adv-x="608" />
<glyph unicode="&#x2005;" horiz-adv-x="454" />
<glyph unicode="&#x2006;" horiz-adv-x="303" />
<glyph unicode="&#x2007;" horiz-adv-x="303" />
<glyph unicode="&#x2008;" horiz-adv-x="227" />
<glyph unicode="&#x2009;" horiz-adv-x="364" />
<glyph unicode="&#x200a;" horiz-adv-x="100" />
<glyph unicode="&#x2010;" horiz-adv-x="1218" d="M244 487v244h731v-244h-731z" />
<glyph unicode="&#x2011;" horiz-adv-x="1218" d="M244 487v244h731v-244h-731z" />
<glyph unicode="&#x2013;" horiz-adv-x="1024" d="M244 487v244h536v-244h-536z" />
<glyph unicode="&#x2014;" horiz-adv-x="2048" d="M244 487v244h1560v-244h-1560z" />
<glyph unicode="&#x2018;" horiz-adv-x="974" d="M244 975v244h243v-244h-243zM487 0zM487 731v244h244v-244h-244z" />
<glyph unicode="&#x2019;" horiz-adv-x="731" d="M244 731v488h243v-488h-243z" />
<glyph unicode="&#x201c;" horiz-adv-x="1218" d="M244 731v488h243v-488h-243zM731 731v488h244v-488h-244z" />
<glyph unicode="&#x201d;" horiz-adv-x="1218" d="M244 731v488h243v-488h-243zM731 731v488h244v-488h-244z" />
<glyph unicode="&#x2026;" d="M975 0v244h244v-244h-244zM487 0v244h244v-244h-244zM0 0v244h244v-244h-244z" />
<glyph unicode="&#x202f;" horiz-adv-x="364" />
<glyph unicode="&#x2039;" horiz-adv-x="1218" d="M244 487v244h243v-244h-243zM487 244v243h244v-243h-244zM487 731v244h244v-244h-244zM731 0v244h244v-244h-244zM731 975v244h244v-244h-244z" />
<glyph unicode="&#x203a;" horiz-adv-x="1218" d="M244 0v244h243v-244h-243zM244 975v244h243v-244h-243zM487 244v243h244v-243h-244zM487 731v244h244v-244h-244zM731 487v244h244v-244h-244z" />
<glyph unicode="&#x205f;" horiz-adv-x="454" />
<glyph unicode="&#x2122;" horiz-adv-x="2924" d="M1463 0v1219h243v-1219h-243zM1706 731v244h244v-244h-244zM1950 487v244h244v-244h-244zM2194 731v244h244v-244h-244zM2438 0v1219h243v-1219h-243zM244 975v244h731v-244h-244v-975h-244v975h-243z" />
</font>
</defs>
</svg>
